<?xml version="1.0" encoding="UTF-8" standalone="no"?>
<svg
   viewBox="0 0 500 500"
   version="1.1"
   id="svg625"
   sodipodi:docname="cake.svg"
   inkscape:version="1.2.2 (b0a84865, 2022-12-01)"
   inkscape:export-filename="cake.svg"
   inkscape:export-xdpi="96"
   inkscape:export-ydpi="96"
   xmlns:inkscape="http://www.inkscape.org/namespaces/inkscape"
   xmlns:sodipodi="http://sodipodi.sourceforge.net/DTD/sodipodi-0.dtd"
   xmlns="http://www.w3.org/2000/svg"
   xmlns:svg="http://www.w3.org/2000/svg">
  <defs
     id="defs629" />
  <sodipodi:namedview
     id="namedview627"
     pagecolor="#505050"
     bordercolor="#eeeeee"
     borderopacity="1"
     inkscape:showpageshadow="0"
     inkscape:pageopacity="0"
     inkscape:pagecheckerboard="0"
     inkscape:deskcolor="#505050"
     showgrid="false"
     showguides="false"
     inkscape:zoom="2.6632121"
     inkscape:cx="185.30256"
     inkscape:cy="281.61483"
     inkscape:window-width="2560"
     inkscape:window-height="1412"
     inkscape:window-x="1920"
     inkscape:window-y="28"
     inkscape:window-maximized="0"
     inkscape:current-layer="svg625" />
  <g
     id="Theme_Set"
     transform="translate(-112.00011,49.025955)">
    <ellipse
       transform="rotate(-176.7725)"
       fill="#cbe55e"
       cx="-392.564"
       cy="-277.16336"
       rx="173.86958"
       ry="73.737976"
       id="ellipse612"
       style="display:inline;stroke-width:0.999986"
       inkscape:label="base" />
    <path
       style="display:none;fill:#784421;fill-opacity:1"
       d="m 167.57816,249.94225 191.80289,68.68425 2.56497,62.41431 -3.6871,2.84104 -189.82577,-62.12039 c 0,0 1.13999,-72.38921 -0.85499,-71.81921 z"
       id="path5320"
       sodipodi:nodetypes="cccccc"
       inkscape:label="cream-bottom"
       transform="translate(112.66808,-52.365797)" />
    <path
       fill="#e046aa"
       d="m 276.39059,111.59252 c 0.008,-0.009 0.017,-0.019 0.022,-0.027 -2.809,-2.14099 -4.534,-5.39799 -4.343,-8.96499 0.326,-6.007001 17.438,-14.756999 20.38,-9.071999 1.778,-6.16801 18.152,-13.20401 20.413,-7.808 2.604,-6.15001 18.497,-12.05601 20.443,-6.72601 3.251,-6.091 18.723,-10.881 20.482,-5.435 3.814,-5.976 18.96,-9.554 20.553,-3.877 4.328,-5.763 19.312,-8.087 20.625,-2.184 13.76,-9.58 29.853,3.318 22.303,12.342 -0.33,0.395 -0.693,0.769 -1.072,1.131 9.729,17.729008 47.374,86.078999 52.306,90.979999 1.329,1.319 1.927,2.665 1.816,3.827 l 0.259,-0.009 0.438,12.483 1.391,39.841 0.339,9.671 0.26001,25.48616 c 0.123,3.537 -3.67808,1.67402 -10.56408,-0.99398 l -174.69292,-62.457 -7.80701,-3.204 z"
       id="path614"
       style="display:none;fill:#e1528c;fill-opacity:1"
       sodipodi:nodetypes="cccccccccccccccccccccc"
       inkscape:label="cream-top" />
    <path
       fill="#e8e6c8"
       d="m 276.12448,111.24679 c 0.008,-0.009 0.017,-0.019 0.022,-0.027 -2.809,-2.14099 -4.534,-5.39799 -4.343,-8.96499 0.326,-6.006999 17.438,-14.757001 20.38,-9.071999 1.778,-6.168012 18.152,-13.204012 20.413,-7.808002 2.604,-6.15001 18.497,-12.05601 20.443,-6.72601 3.251,-6.091 18.723,-10.881 20.482,-5.435 3.814,-5.976 18.96,-9.554 20.553,-3.877 4.328,-5.763 19.312,-8.087 20.625,-2.184 13.76,-9.58 29.853,3.318 22.303,12.342 -0.33,0.395 -0.693,0.769 -1.072,1.131 9.729,17.729012 47.374,86.079001 52.306,90.980001 1.329,1.319 1.927,2.665 1.816,3.827 l 0.259,-0.009 0.438,12.483 1.391,39.841 c -1.545,1.036 -4.373,1.419 -8.415,0.925 -2.46,-0.30399 -5.156,-0.67799 -8.357,-1.88999 -4.693,-1.743 -5.585,0.66199 -10.286,-1.073 -4.693,-1.729 -4.101,-3.339 -8.802,-5.075 -4.694,-1.728 -4.192,-3.104 -8.886,-4.84 -4.702,-1.734 -4.923,-1.128 -9.625,-2.861 -4.691,-1.736 -4.571,-2.082 -9.266,-3.81 -4.701,-1.734 -4.822,-1.398 -9.524,-3.134 -4.702,-1.736 -4.45,-2.411 -9.153,-4.145 -4.692,-1.728 -4.951,-1.028 -9.654,-2.764 -4.7,-1.736 -5.099,-0.671 -9.79,-2.407 -4.704,-1.735 -4.321,-2.756 -9.024,-4.482 -4.701,-1.737 -4.541,-2.159 -9.242,-3.894 -4.703,-1.735 -5.289,-0.15 -9.991,-1.884 -4.693,-1.736 -4.792,-1.476 -9.486,-3.209 -4.702,-1.729 -3.948,-3.788 -8.649,-5.515 -4.695,-1.735 -5.206,-0.377 -9.908,-2.113 -4.693,-1.735 -4.846,-1.313 -9.546,-3.048 -4.703,-1.735 -5.092,-0.698 -9.793,-2.433 -4.702,-1.735 -4.085,-3.391 -8.774,-5.185 l -0.467,-0.043 c -0.127,0.938 -0.212,2.05 -0.148,3.815 0.061,1.771 0.382,2.868 0.772,3.789 l 0.61,-0.171 c 4.68,1.793 3.971,3.658 8.681,5.395 4.701,1.735 4.815,1.424 9.519,3.159 4.701,1.733 4.625,1.938 9.326,3.673 4.695,1.736 4.467,2.37599 9.16,4.113 4.701,1.728 5.259,0.231 9.951,1.968 4.701,1.735 4.999,0.927 9.701,2.661 4.701,1.727 3.756,4.268 8.46,6.003 4.702,1.735 5.583,-0.663 10.286,1.073 4.701,1.735 3.864,4.00799 8.559,5.742 4.702,1.735 5.293,0.123 9.997,1.857 4.702,1.736 4.04,3.519 8.741,5.245 4.703,1.735 4.634,1.921 9.327,3.657 4.7,1.736 5.044,0.806 9.737,2.542 4.702,1.73399 5.121,0.59699 9.822,2.333 4.703,1.735 4.634,1.911 9.336,3.646 4.693,1.727 4.275,2.876 8.969,4.612 4.703,1.735 4.467,2.368 9.168,4.096 4.692,1.735 5.203,0.366 9.898,2.11 3.199,1.215 6.121,1.353 8.581,1.65 3.935,0.488 7.384,0.767 8.525,-0.422 l 0.15482,39.22241 c -2.14172,5.2349 -7.35726,3.91503 -10.75089,4.87505 -3.82549,-2.08928 2.73981,-0.097 -15.18762,-3.42503 -0.63541,-2.14423 -5.04543,-4.10113 -12.47459,-5.53023 -7.37147,-0.32274 -10.46081,-2.6978 -17.48071,-5.83308 -5.64436,-1.92302 -10.93719,-1.00302 -16.25644,-5.20182 -6.44871,-0.14473 -12.45613,-0.59329 -19.36464,-2.30535 -6.7124,0.30679 -12.20836,-2.55614 -17.49111,-6.89574 -2.97308,-2.12387 -6.2735,-3.51446 -14.56255,-4.22073 -4.75942,0.27305 -8.32966,-2.74268 -14.13671,-5.26329 -5.95223,-1.10557 -12.46051,-0.91372 -16.37521,-6.77352 -3.26628,-0.31707 -6.72457,0.32592 -9.31263,-3.38222 -2.59915,-0.71901 -4.85368,-1.88078 -6.84527,-3.92807 -3.16307,-0.56217 -5.93287,1.55124 -8.905,-1.22066 -0.17335,-2.64777 -1.48142,-4.91731 -5.18626,-6.38793 -0.62982,3.23488 -1.37653,6.46976 -0.28988,9.70464 l 2.73154,3.89484 c 3.01307,0.0949 2.69794,3.59029 5.53077,3.10053 1.99026,0.21222 2.80041,-0.2526 5.04169,0.30594 0.39281,1.26277 1.02683,3.31472 3.57256,3.14221 0.70423,1.50831 1.71529,2.11237 5.29546,1.82322 3.66596,1.19652 7.49871,3.27757 8.34657,5.17861 2.64803,2.07733 7.10713,1.66852 12.19207,2.70147 2.62539,0.94089 4.13627,3.38557 7.48034,2.52976 5.22344,0.73634 10.1355,1.32761 16.05803,5.90897 2.36144,0.62652 3.8434,-2.50166 8.77358,2.87203 3.54944,-1.25434 6.52889,1.82329 10.07833,4.40721 3.35867,-1.45395 7.94168,0.64432 10.60694,1.61734 6.17885,1.25838 14.06092,-0.12384 15.50311,5.19454 l 11.59581,2.31491 c 4.11317,1.34454 8.63643,-1.0496 10.51888,3.80036 5.03486,0.70248 9.46757,6.53941 14.8328,4.26849 4.18295,1.8252 10.29471,1.63845 11.50121,4.12509 5.29815,0.21817 10.23371,2.23075 16.58598,3.64533 5.40636,1.20394 9.33271,-6.38933 9.09995,0.48915 l 1.10441,35.6061 c 0.123,3.537 -4.93422,7.78175 -11.82022,5.11375 l -174.30712,-60.5212 -10.22292,0.50317 z"
       id="path616"
       inkscape:label="biscuit"
       style="display:none;fill:#e8e6c8;fill-opacity:1"
       sodipodi:nodetypes="cccccccccccccccccccccccscccccccccccccccccccccccccccccccccccccccccccccccccccccccccccccccccccccscccccc"
       sodipodi:insensitive="true" />
    <path
       fill="#a88469"
       d="m 275.80254,111.02035 c 0.008,-0.009 0.017,-0.019 0.022,-0.027 -2.809,-2.14099 -4.534,-5.39799 -4.343,-8.96499 0.326,-6.006988 17.438,-14.75699 20.38,-9.07199 1.778,-6.16801 18.152,-13.20401 20.413,-7.808 2.604,-6.15001 18.497,-12.05601 20.443,-6.72601 3.251,-6.091 18.723,-10.881 20.482,-5.435 3.814,-5.976 18.96,-9.554 20.553,-3.877 4.328,-5.763 19.312,-8.087 20.625,-2.184 13.76,-9.58 29.853,3.318 22.303,12.342 -0.33,0.395 -0.693,0.769 -1.072,1.131 9.729,17.729012 47.374,86.07899 52.306,90.97999 1.329,1.319 1.927,2.665 1.816,3.827 l 0.259,-0.009 0.438,12.483 h -0.008 c -0.451,1.191 -4.369,0.97001 -8.459,0.462 -2.463,-0.296 -5.086,-1.015 -8.287,-2.226 -4.795,-1.783 -5.206,-0.684 -10.009,-2.458 -4.812,-1.765 -4.546,-2.481 -9.349,-4.256 -4.812,-1.773 -5.511,0.133 -10.314,-1.631 -4.812,-1.774 -4.508,-2.602 -9.311,-4.374 -4.811,-1.767 -4.712,-2.026 -9.523,-3.801 -4.803,-1.773 -4.34,-3.039 -9.142,-4.813 -4.812,-1.765 -5.171,-0.785 -9.981,-2.56 -4.804,-1.772 -4.957,-1.358 -9.767,-3.133 -4.804,-1.773 -4.935,-1.436 -9.737,-3.207 -4.812,-1.774 -4.583,-2.383 -9.395,-4.157 -4.803,-1.771 -4.393,-2.895 -9.196,-4.668 -4.812,-1.773 -5.511,0.125 -10.315,-1.647 -4.809,-1.766 -4.073,-3.768 -8.883,-5.532 -4.803,-1.771 -4.766,-1.881 -9.577,-3.654 -4.803,-1.774 -5.746,0.781 -10.56,-0.99 -4.811,-1.773 -4.104,-3.681 -8.915,-5.455 -4.81,-1.772 -4.649,-2.169 -9.438,-4.003 -3.408,-1.429 -7.502,2.088 -7.251,5.204 0.214,4.71 1.538,4.654 1.701,9.364 0.167,4.719 1.082,4.688 1.247,9.398 0.165,4.719 -0.518,4.743 -0.354,9.452 0.104,2.945 -0.217,4.065 -0.428,5.647 -0.127,0.938 -0.212,2.05 -0.148,3.815 0.061,1.771 0.382,2.868 0.772,3.789 0.655,1.551 1.493,2.622 1.597,5.569 0.164,4.717 -1.543,4.776 -1.379,9.495 0.166,4.711 -0.774,4.744 -0.609,9.464 0.166,4.719 2.087,4.65 2.253,9.369 0.165,4.72 0.255,4.717 0.421,9.436 l -0.068,0.176 -0.62338,6.596 -0.52968,5.60462 -0.22218,7.23091 c 0,0 0.0723,5.26383 0.48809,8.40373 0.41581,3.1399 -0.23071,6.42516 -0.2461,9.66082 -0.0154,3.23566 -0.39107,6.3027 -0.30209,8.99978 0.089,2.69709 0.67071,5.55289 0.76687,7.31876 0.0962,1.76587 -0.37737,3.26487 -0.37737,3.26487 l -8.77538,0.52926 z"
       id="path618"
       style="display:inline;fill:#a88469;fill-opacity:1"
       inkscape:label="cream-top"
       sodipodi:nodetypes="ccccccccccccccccccccccccccccccccccccccccccccccccccczzzzccc"
       sodipodi:insensitive="true" />
    <path
       fill="#8c6454"
       d="m 275.85973,110.53448 0.113,0.042 c -2.863,-2.13999 -4.627,-5.431 -4.434,-9.03399 0.326,-6.006998 17.438,-14.756993 20.38,-9.071993 1.778,-6.16801 18.152,-13.20401 20.413,-7.808 2.604,-6.15001 18.497,-12.05601 20.443,-6.72601 3.251,-6.091 18.723,-10.881 20.482,-5.435 3.814,-5.976 18.96,-9.554 20.553,-3.877 4.328,-5.763 19.312,-8.087 20.625,-2.184 13.76,-9.58 29.853,3.318 22.303,12.342 -3.859,4.61301 -11.123,7.12801 -17.16,4.42501 -1.942,-0.867 -3.553,-2.14601 -4.773,-3.65701 -2.387,4.89901 -8.512,7.26501 -14.32,5.30601 -2.121,-0.714 -3.918,-1.918 -5.305,-3.41201 -1.886,5.41401 -8.128,8.37801 -14.269,6.64601 -2.163,-0.611 -4.022,-1.731 -5.485,-3.162 -0.012,0.064 -0.021,0.13499 -0.035,0.196 -1.428,5.83199 -7.783,9.284985 -14.199,7.716998 -2.229,-0.546998 -4.164,-1.636998 -5.689,-3.061998 -0.021,0.29099 -0.051,0.56899 -0.104,0.822 -1.219,5.879995 -7.45,9.558993 -13.918,8.216991 -2.342,-0.484996 -4.387,-1.567996 -5.994,-3.024996 0,0.348 -0.014,0.675 -0.06,0.972 -0.918,5.938998 -6.956,9.933998 -13.489,8.924998 -2.52,-0.39 -4.74,-1.471 -6.47,-2.987 -0.001,0.043 10e-4,0.091 10e-4,0.132 -0.326,6.008 -5.943,10.59 -12.553,10.23 -0.101,-0.005 -0.195,-0.021 -0.293,-0.029 l 169.183,62.591 c 11.459,4.349 17.658,2.457 17.982,-0.904 l 0.259,-0.009 0.438,12.483 h -0.008 c -0.451,1.19099 -4.369,0.97 -8.459,0.462 -2.463,-0.296 -5.086,-1.015 -8.287,-2.226 -4.795,-1.78301 -5.206,-0.68401 -10.009,-2.45801 -4.812,-1.765 -4.546,-2.481 -9.349,-4.256 -4.812,-1.773 -5.511,0.133 -10.314,-1.631 -4.812,-1.774 -4.508,-2.602 -9.311,-4.374 -4.811,-1.767 -4.712,-2.026 -9.523,-3.80099 -4.803,-1.773 -4.34,-3.039 -9.142,-4.813 -4.812,-1.765 -5.171,-0.785 -9.981,-2.56 -4.804,-1.772 -4.957,-1.358 -9.767,-3.133 -4.804,-1.773 -4.935,-1.43601 -9.737,-3.207 -4.812,-1.774 -4.583,-2.38301 -9.395,-4.15701 -4.803,-1.77099 -4.393,-2.895 -9.196,-4.668 -4.812,-1.773 -5.511,0.125 -10.315,-1.64699 -4.809,-1.766 -4.073,-3.76801 -8.883,-5.53201 -4.803,-1.77099 -4.766,-1.881 -9.577,-3.654 -4.803,-1.774 -5.746,0.781 -10.56,-0.99 -4.811,-1.773 -4.104,-3.681 -8.915,-5.455 -4.81,-1.772 -4.649,-2.169 -9.438,-4.003 -3.408,-1.429 -7.502,2.088 -7.251,5.204 0.214,4.71 1.538,4.654 1.701,9.364 0.167,4.719 1.082,4.688 1.247,9.398 0.165,4.719 -0.518,4.743 -0.354,9.452 0.104,2.945 -0.217,4.065 -0.428,5.647 -0.127,0.938 -0.212,2.05 -0.148,3.815 0.061,1.771 0.382,2.868 0.772,3.789 0.655,1.551 1.493,2.622 1.597,5.569 0.164,4.717 -1.543,4.776 -1.379,9.495 0.166,4.711 -0.774,4.744 -0.609,9.464 0.166,4.719 1.36984,4.29142 2.253,9.369 0.165,4.72001 0.255,4.717 0.421,9.436 l -1.04171,10.39995 c 0.21786,5.08059 -0.27447,8.52659 -0.0676,13.68892 0.0816,2.03657 0.31622,6.84958 0.21104,11.102 -0.0635,2.56717 -0.85656,7.00033 -0.98002,10.84168 -0.0822,2.55703 1.39656,8.52675 1.13255,10.99436 -0.24962,2.33319 -9.07315,-0.0865 -9.44486,1.77566 z"
       id="path620"
       sodipodi:nodetypes="cccccccccccccccccccccccccccccccccccccccccccccccccccccccccccccccccsssscc"
       style="display:inline;fill:#ffeeaa;fill-opacity:1"
       sodipodi:insensitive="true"
       inkscape:label="cream-out" />
  </g>
</svg>
