<?xml version="1.0" encoding="iso-8859-1"?>
<!-- Generator: Adobe Illustrator 18.0.0, SVG Export Plug-In . SVG Version: 6.00 Build 0)  -->
<!DOCTYPE svg PUBLIC "-//W3C//DTD SVG 1.1//EN" "http://www.w3.org/Graphics/SVG/1.1/DTD/svg11.dtd">
<svg version="1.1" id="Capa_1" xmlns="http://www.w3.org/2000/svg" xmlns:xlink="http://www.w3.org/1999/xlink" x="0px" y="0px"
	 viewBox="0 0 297 297" style="enable-background:new 0 0 297 297;" xml:space="preserve">
<g>
	<g>
		<g>
			<rect x="49.5" y="110.25" style="fill:#D15975;" width="198" height="98"/>
		</g>
	</g>
	<g>
		<g>
			<rect x="82.5" y="110.25" style="fill:#F36E81;" width="132" height="98"/>
		</g>
	</g>
	<g>
		<g>
			<path style="fill:#EDB7AB;" d="M264,125.318c0,9.248-7.568,17.103-16.815,16.929c-8.967-0.168-16.185-7.49-16.185-16.497
				c0,9.113-7.387,16.5-16.5,16.5s-16.5-7.387-16.5-16.5c0,9.113-7.387,16.5-16.5,16.5s-16.5-7.387-16.5-16.5
				c0,9.113-7.387,16.5-16.5,16.5s-16.5-7.387-16.5-16.5c0,9.113-7.387,16.5-16.5,16.5S99,134.863,99,125.75
				c0,9.113-7.387,16.5-16.5,16.5S66,134.863,66,125.75c0,9.007-7.218,16.329-16.185,16.497C40.568,142.42,33,134.566,33,125.318
				l0-16.651c0-8.79,7.126-15.916,15.917-15.916h199.167c8.79,0,15.917,7.126,15.917,15.916V125.318z"/>
		</g>
	</g>
	<g style="opacity:0.6;">
		<path style="fill:#BDC3C7;" d="M247.185,125.747c-8.967-0.168-16.185-7.49-16.185-16.497c0,9.113-7.387,16.5-16.5,16.5
			s-16.5-7.387-16.5-16.5c0,9.113-7.387,16.5-16.5,16.5s-16.5-7.387-16.5-16.5c0,9.113-7.387,16.5-16.5,16.5s-16.5-7.387-16.5-16.5
			c0,9.113-7.387,16.5-16.5,16.5S99,118.363,99,109.25c0,9.113-7.387,16.5-16.5,16.5S66,118.363,66,109.25
			c0,9.007-7.218,16.329-16.185,16.497C40.568,125.92,33,118.066,33,108.818v16.5c0,9.248,7.568,17.103,16.815,16.929
			C58.782,142.079,66,134.757,66,125.75c0,9.113,7.387,16.5,16.5,16.5s16.5-7.387,16.5-16.5c0,9.113,7.387,16.5,16.5,16.5
			s16.5-7.387,16.5-16.5c0,9.113,7.387,16.5,16.5,16.5s16.5-7.387,16.5-16.5c0,9.113,7.387,16.5,16.5,16.5s16.5-7.387,16.5-16.5
			c0,9.113,7.387,16.5,16.5,16.5s16.5-7.387,16.5-16.5c0,9.007,7.218,16.329,16.185,16.497c9.247,0.173,16.815-7.681,16.815-16.929
			v-16.5C264,118.066,256.432,125.92,247.185,125.747z"/>
	</g>
	<g>
		<g>
			<circle style="fill:#ECF0F1;" cx="66" cy="183.5" r="8.25"/>
		</g>
		<g>
			<circle style="fill:#ECF0F1;" cx="99" cy="183.5" r="8.25"/>
		</g>
		<g>
			<circle style="fill:#ECF0F1;" cx="132" cy="183.5" r="8.25"/>
		</g>
		<g>
			<circle style="fill:#ECF0F1;" cx="165" cy="183.5" r="8.25"/>
		</g>
		<g>
			<circle style="fill:#ECF0F1;" cx="198" cy="183.5" r="8.25"/>
		</g>
		<g>
			<circle style="fill:#ECF0F1;" cx="231" cy="183.5" r="8.25"/>
		</g>
	</g>
	<g>
		<g>
			<path style="fill:#DA768E;" d="M123,51.5L123,51.5c0,4.556,3.694,8.25,8.25,8.25h8.25v33H156v-43.5c0-3.314-2.686-6-6-6h-18.75
				C126.694,43.25,123,46.944,123,51.5z"/>
		</g>
	</g>
	<g style="opacity:0.6;">
		<path style="fill:#BDC3C7;" d="M150,43.25h-7.5c3.314,0,6,2.686,6,6v43.5h7.5v-43.5C156,45.936,153.314,43.25,150,43.25z"/>
	</g>
	<g>
		<g>
			<path style="fill:#F5DB91;" d="M133.5,30.917c0-6.812,13-24.667,13-24.667s13,17.855,13,24.667s-5.82,12.333-13,12.333
				S133.5,37.728,133.5,30.917z"/>
		</g>
	</g>
	<g style="opacity:0.6;">
		<path style="fill:#BDC3C7;" d="M146.5,6.25c0,0-1.504,2.067-3.488,5.059c2.222,5.809,5.488,15.112,5.488,19.608
			c0,5.663-2.324,10.423-5.488,11.871c1.111,0.293,2.278,0.462,3.488,0.462c7.18,0,13-5.522,13-12.333
			C159.5,24.105,146.5,6.25,146.5,6.25z"/>
	</g>
	<g>
		<path style="fill:#C63C22;" d="M16.5,274.25h264v-48.333c0-9.757-7.91-17.667-17.667-17.667H34.167
			c-9.757,0-17.667,7.91-17.667,17.667V274.25z"/>
	</g>
	<g>
		<g>
			<path style="fill:#F492A6;" d="M16.5,274.25h264v-48.333c0-9.757-7.91-17.667-17.667-17.667H34.167
				c-9.757,0-17.667,7.91-17.667,17.667V274.25z"/>
		</g>
	</g>
	<g>
		<g>
			<path style="fill:#EDB7AB;" d="M48.333,274.25H247.5v-48.333c0-9.757-7.91-17.667-17.667-17.667H66
				c-9.757,0-17.667,7.91-17.667,17.667V274.25z"/>
		</g>
	</g>
	<g>
		<g>
			<path style="fill:#5B5869;" d="M8.25,290.75h280.5c4.556,0,8.25-3.694,8.25-8.25l0,0c0-4.556-3.694-8.25-8.25-8.25H8.25
				c-4.556,0-8.25,3.694-8.25,8.25l0,0C0,287.056,3.694,290.75,8.25,290.75z"/>
		</g>
	</g>
	<g>
		<g>
			<circle style="fill:#ECF0F1;" cx="41.25" cy="249.5" r="8.25"/>
		</g>
		<g>
			<circle style="fill:#ECF0F1;" cx="84.15" cy="249.5" r="8.25"/>
		</g>
		<g>
			<circle style="fill:#ECF0F1;" cx="127.05" cy="249.5" r="8.25"/>
		</g>
		<g>
			<circle style="fill:#ECF0F1;" cx="169.95" cy="249.5" r="8.25"/>
		</g>
		<g>
			<circle style="fill:#ECF0F1;" cx="212.85" cy="249.5" r="8.25"/>
		</g>
		<g>
			<circle style="fill:#ECF0F1;" cx="255.75" cy="249.5" r="8.25"/>
		</g>
	</g>
</g>
<g>
</g>
<g>
</g>
<g>
</g>
<g>
</g>
<g>
</g>
<g>
</g>
<g>
</g>
<g>
</g>
<g>
</g>
<g>
</g>
<g>
</g>
<g>
</g>
<g>
</g>
<g>
</g>
<g>
</g>
</svg>
